<svg width="19" height="22" viewBox="0 0 19 22" fill="none" xmlns="http://www.w3.org/2000/svg">
<path d="M1.69727 17.3262C1.19596 17.3262 0.802083 17.2025 0.515625 16.9551C0.229167 16.7077 0.0859375 16.3789 0.0859375 15.9688C0.0859375 15.6302 0.173828 15.3047 0.349609 14.9922C0.531901 14.6732 0.763021 14.3672 1.04297 14.0742C1.32292 13.7812 1.60938 13.4948 1.90234 13.2148C2.13021 12.9935 2.30599 12.7038 2.42969 12.3457C2.55339 11.9811 2.64779 11.584 2.71289 11.1543C2.77799 10.7246 2.83008 10.2982 2.86914 9.875C2.91471 8.67708 3.06771 7.60612 3.32812 6.66211C3.59505 5.71159 3.99544 4.91406 4.5293 4.26953C5.06315 3.61849 5.75 3.13997 6.58984 2.83398C6.79167 2.18945 7.14648 1.64909 7.6543 1.21289C8.16211 0.776693 8.77409 0.558594 9.49023 0.558594C10.2129 0.558594 10.8281 0.776693 11.3359 1.21289C11.8438 1.64909 12.1986 2.18945 12.4004 2.83398C13.2402 3.13997 13.9238 3.61849 14.4512 4.26953C14.985 4.91406 15.3854 5.71159 15.6523 6.66211C15.9193 7.60612 16.0755 8.67708 16.1211 9.875C16.1602 10.2982 16.2122 10.7246 16.2773 11.1543C16.3424 11.584 16.4368 11.9811 16.5605 12.3457C16.6842 12.7038 16.86 12.9935 17.0879 13.2148C17.3809 13.4948 17.6673 13.7812 17.9473 14.0742C18.2272 14.3672 18.4583 14.6732 18.6406 14.9922C18.8229 15.3047 18.9141 15.6302 18.9141 15.9688C18.9141 16.3789 18.7676 16.7077 18.4746 16.9551C18.1882 17.2025 17.7943 17.3262 17.293 17.3262H1.69727ZM9.49023 21.3496C8.91732 21.3496 8.40299 21.2259 7.94727 20.9785C7.49805 20.7376 7.13346 20.4154 6.85352 20.0117C6.58008 19.6081 6.42383 19.1686 6.38477 18.6934H12.6055C12.5599 19.1686 12.4004 19.6081 12.127 20.0117C11.8535 20.4154 11.4889 20.7376 11.0332 20.9785C10.584 21.2259 10.0697 21.3496 9.49023 21.3496Z" fill="#1637AD"/>
</svg>
