<svg width="35" height="30" viewBox="0 0 35 30" fill="none" xmlns="http://www.w3.org/2000/svg">
<path d="M4.89174 10.4062L1.62221 9.72656C1.41127 9.67969 1.2394 9.56641 1.10658 9.38672C0.981585 9.19922 0.930803 8.99609 0.954241 8.77734C0.993303 8.53516 1.11049 8.34766 1.3058 8.21484C1.50893 8.07422 1.73158 8.03125 1.97377 8.08594L5.21987 8.77734C5.44643 8.83203 5.62221 8.95312 5.74721 9.14062C5.87221 9.32812 5.91518 9.53516 5.87612 9.76172C5.82924 9.98828 5.70424 10.1641 5.50112 10.2891C5.3058 10.4141 5.10268 10.4531 4.89174 10.4062ZM6.08705 6.39844L3.7433 4.05469C3.57143 3.88281 3.48549 3.6875 3.48549 3.46875C3.4933 3.24219 3.57924 3.04688 3.7433 2.88281C3.91518 2.71094 4.11049 2.625 4.32924 2.625C4.5558 2.61719 4.75502 2.70313 4.9269 2.88281L7.27065 5.22656C7.44252 5.39062 7.52455 5.58984 7.51674 5.82422C7.51674 6.05078 7.43471 6.24219 7.27065 6.39844C7.1144 6.57031 6.91908 6.65625 6.68471 6.65625C6.45815 6.65625 6.25893 6.57031 6.08705 6.39844ZM10.6339 5.16797C10.4074 5.21484 10.1964 5.17578 10.0011 5.05078C9.8058 4.91797 9.68471 4.73828 9.63783 4.51172L8.93471 1.28906C8.88783 1.05469 8.9308 0.839844 9.06362 0.644531C9.19643 0.449219 9.37221 0.328125 9.59096 0.28125C9.82533 0.242188 10.0363 0.285156 10.2238 0.410156C10.4191 0.535156 10.5402 0.710938 10.5871 0.9375L11.2902 4.17188C11.3449 4.39063 11.3019 4.60156 11.1613 4.80469C11.0285 5 10.8527 5.12109 10.6339 5.16797ZM15.2394 26.6367L7.28237 18.6797C7.01674 18.4141 6.88393 18.0977 6.88393 17.7305C6.88393 17.3555 7.01674 17.0352 7.28237 16.7695C7.54018 16.5039 7.85268 16.3711 8.21987 16.3711C8.59487 16.3711 8.91908 16.5078 9.19252 16.7812L14.2199 21.8086C14.2589 21.6367 14.3019 21.4609 14.3488 21.2812C14.4035 21.0938 14.4621 20.9062 14.5246 20.7188L7.3058 13.4883C7.03237 13.2227 6.89565 12.9062 6.89565 12.5391C6.89565 12.1641 7.02846 11.8438 7.29408 11.5781C7.55971 11.3203 7.87612 11.1914 8.2433 11.1914C8.6183 11.1914 8.93471 11.3203 9.19252 11.5781L15.8605 18.2461C15.9621 18.1055 16.0636 17.9688 16.1652 17.8359C16.2746 17.6953 16.3839 17.5586 16.4933 17.4258L9.2394 10.1602C8.96596 9.89453 8.82924 9.57812 8.82924 9.21094C8.82924 8.84375 8.96596 8.52734 9.2394 8.26172C9.50502 7.98828 9.82143 7.85156 10.1886 7.85156C10.5558 7.85156 10.8722 7.98828 11.1378 8.26172L18.4972 15.6094C18.6456 15.5078 18.7902 15.418 18.9308 15.3398C19.0792 15.2539 19.2277 15.1758 19.3761 15.1055L13.0128 8.74219C12.7472 8.47656 12.6144 8.16016 12.6144 7.79297C12.6144 7.42578 12.7472 7.10547 13.0128 6.83203C13.2785 6.56641 13.5949 6.43359 13.9621 6.43359C14.3292 6.43359 14.6456 6.56641 14.9113 6.83203L23.6652 15.5977C23.8058 15.7383 23.9269 15.8086 24.0285 15.8086C24.13 15.8086 24.216 15.7734 24.2863 15.7031C24.3566 15.6328 24.3956 15.543 24.4035 15.4336C24.4113 15.3242 24.38 15.1836 24.3097 15.0117L22.9855 11.3555C22.7902 10.8008 22.7042 10.3438 22.7277 9.98438C22.7589 9.61719 22.923 9.30078 23.2199 9.03516C23.4855 8.80078 23.7706 8.69141 24.0753 8.70703C24.38 8.72266 24.6496 8.85938 24.8839 9.11719C25.0246 9.26562 25.1847 9.5 25.3644 9.82031C25.5441 10.1328 25.7277 10.4766 25.9152 10.8516C26.1105 11.2266 26.298 11.5859 26.4777 11.9297C26.7511 12.4375 27.0206 12.957 27.2863 13.4883C27.5597 14.0195 27.8214 14.5586 28.0714 15.1055C28.3214 15.6445 28.5441 16.1836 28.7394 16.7227C28.9425 17.2617 29.1066 17.793 29.2316 18.3164C29.7081 19.9102 29.7785 21.3945 29.4425 22.7695C29.1066 24.1367 28.3058 25.4531 27.0402 26.7188C26.1886 27.5547 25.2746 28.1953 24.298 28.6406C23.3214 29.0859 22.3136 29.3164 21.2746 29.332C20.2355 29.3477 19.2003 29.1328 18.1691 28.6875C17.1456 28.25 16.1691 27.5664 15.2394 26.6367ZM21.4738 8.90625C21.3956 9.20312 21.3449 9.51562 21.3214 9.84375C21.3058 10.1641 21.3175 10.5039 21.3566 10.8633L17.4191 6.92578C17.4425 6.88672 17.466 6.85547 17.4894 6.83203C17.755 6.56641 18.0714 6.43359 18.4386 6.43359C18.8058 6.43359 19.1261 6.56641 19.3996 6.83203L21.4738 8.90625ZM31.505 26.7188C30.7863 27.4375 30.0128 28.0117 29.1847 28.4414C28.3566 28.8711 27.505 29.1445 26.63 29.2617C27.1925 28.8789 27.7316 28.4297 28.2472 27.9141C29.6769 26.4844 30.6105 24.9492 31.048 23.3086C31.4855 21.6602 31.4347 19.8672 30.8956 17.9297C30.7706 17.3906 30.6066 16.8359 30.4035 16.2656C30.2003 15.6953 29.9699 15.1289 29.7121 14.5664C29.4621 13.9961 29.2003 13.4414 28.9269 12.9023C28.6613 12.3633 28.3956 11.8516 28.13 11.3672C27.9894 11.0859 27.8449 10.8047 27.6964 10.5234C27.548 10.2422 27.3996 9.95703 27.2511 9.66797C27.3371 9.41797 27.4855 9.20703 27.6964 9.03516C27.9542 8.80078 28.2355 8.69141 28.5402 8.70703C28.8527 8.72266 29.1261 8.85938 29.3605 9.11719C29.4933 9.26562 29.6496 9.5 29.8292 9.82031C30.0167 10.1328 30.2081 10.4766 30.4035 10.8516C30.5988 11.2266 30.7824 11.5859 30.9542 11.9297C31.2199 12.4375 31.4894 12.957 31.7628 13.4883C32.0363 14.0195 32.298 14.5586 32.548 15.1055C32.798 15.6445 33.0206 16.1836 33.216 16.7227C33.4191 17.2617 33.5831 17.7891 33.7081 18.3047C34.1769 19.9062 34.2433 21.3945 33.9074 22.7695C33.5714 24.1367 32.7706 25.4531 31.505 26.7188Z" fill="#1637AD"/>
</svg>
