<svg width="25" height="37" viewBox="0 0 25 37" fill="none" xmlns="http://www.w3.org/2000/svg">
<g filter="url(#filter0_d_72_150)">
<path d="M8.45815 28.5117C7.94252 28.5117 7.53627 28.3711 7.2394 28.0898C6.94252 27.8086 6.79799 27.4219 6.8058 26.9297L7.04018 13.6523C7.04018 13.418 6.99721 13.2266 6.91127 13.0781C6.82533 12.9219 6.68471 12.8008 6.4894 12.7148C5.95815 12.4805 5.52065 12.2227 5.1769 11.9414C4.84096 11.6523 4.59877 11.2852 4.45033 10.8398C4.30971 10.3867 4.25502 9.79688 4.28627 9.07031L4.6144 1.89844C4.63002 1.625 4.71205 1.41016 4.86049 1.25391C5.01674 1.09766 5.22377 1.01953 5.48158 1.01953C5.73158 1.01953 5.92299 1.10156 6.0558 1.26562C6.19643 1.42187 6.26674 1.64062 6.26674 1.92188L6.18471 8.89453C6.1769 9.34766 6.39174 9.57422 6.82924 9.57422C7.03237 9.57422 7.19643 9.51562 7.32143 9.39844C7.44643 9.28125 7.50893 9.12109 7.50893 8.91797L7.63783 1.69922C7.63783 1.43359 7.71205 1.22656 7.86049 1.07812C8.00893 0.921875 8.20815 0.84375 8.45815 0.84375C8.71596 0.84375 8.91908 0.921875 9.06752 1.07812C9.21596 1.22656 9.29408 1.43359 9.3019 1.69922L9.41908 8.91797C9.41908 9.12109 9.48158 9.28125 9.60658 9.39844C9.73158 9.51562 9.89565 9.57422 10.0988 9.57422C10.2863 9.57422 10.4386 9.51562 10.5558 9.39844C10.6808 9.27344 10.7433 9.10547 10.7433 8.89453L10.6496 1.92188C10.6496 1.64062 10.7199 1.42187 10.8605 1.26562C11.0011 1.10156 11.1964 1.01953 11.4464 1.01953C11.9933 1.01953 12.2785 1.3125 12.3019 1.89844L12.6417 9.07031C12.6652 9.79688 12.6027 10.3867 12.4542 10.8398C12.3136 11.2852 12.0714 11.6523 11.7277 11.9414C11.3917 12.2227 10.9581 12.4805 10.4269 12.7148C10.2394 12.8008 10.0988 12.9219 10.005 13.0781C9.91908 13.2266 9.87612 13.418 9.87612 13.6523L10.1222 26.9297C10.1222 27.4219 9.97377 27.8086 9.6769 28.0898C9.38002 28.3711 8.97377 28.5117 8.45815 28.5117ZM17.7863 18.1406C17.7941 17.9141 17.7511 17.7188 17.6574 17.5547C17.5636 17.3828 17.4113 17.2227 17.2003 17.0742L16.5675 16.6523C16.2472 16.4336 16.0089 16.1758 15.8527 15.8789C15.7042 15.5742 15.63 15.2109 15.63 14.7891V14.1562C15.63 12.9922 15.7081 11.8125 15.8644 10.6172C16.0206 9.42188 16.2433 8.26562 16.5324 7.14844C16.8214 6.03125 17.1613 5.00391 17.5519 4.06641C17.9425 3.12109 18.3761 2.3125 18.8527 1.64062C19.0558 1.35938 19.2394 1.15625 19.4035 1.03125C19.5753 0.90625 19.7746 0.84375 20.0011 0.84375C20.2355 0.84375 20.4386 0.921875 20.6105 1.07812C20.7902 1.22656 20.88 1.45312 20.88 1.75781V26.9883C20.88 27.4727 20.7277 27.8477 20.423 28.1133C20.1261 28.3789 19.7199 28.5117 19.2042 28.5117C18.6886 28.5117 18.2785 28.3711 17.9738 28.0898C17.6769 27.8086 17.5363 27.4062 17.5519 26.8828L17.7863 18.1406Z" fill="#1637AD"/>
</g>
<defs>
<filter id="filter0_d_72_150" x="0.239258" y="0.84375" width="24.6406" height="35.668" filterUnits="userSpaceOnUse" color-interpolation-filters="sRGB">
<feFlood flood-opacity="0" result="BackgroundImageFix"/>
<feColorMatrix in="SourceAlpha" type="matrix" values="0 0 0 0 0 0 0 0 0 0 0 0 0 0 0 0 0 0 127 0" result="hardAlpha"/>
<feOffset dy="4"/>
<feGaussianBlur stdDeviation="2"/>
<feComposite in2="hardAlpha" operator="out"/>
<feColorMatrix type="matrix" values="0 0 0 0 0 0 0 0 0 0 0 0 0 0 0 0 0 0 0.25 0"/>
<feBlend mode="normal" in2="BackgroundImageFix" result="effect1_dropShadow_72_150"/>
<feBlend mode="normal" in="SourceGraphic" in2="effect1_dropShadow_72_150" result="shape"/>
</filter>
</defs>
</svg>
