<svg width="14" height="9" viewBox="0 0 14 9" fill="none" xmlns="http://www.w3.org/2000/svg">
<path d="M7 8.36719C6.67188 8.36719 6.3724 8.23177 6.10156 7.96094L0.601562 2.33594C0.497396 2.22656 0.416667 2.10938 0.359375 1.98438C0.307292 1.85417 0.28125 1.71615 0.28125 1.57031C0.28125 1.36198 0.330729 1.17448 0.429688 1.00781C0.528646 0.835938 0.661458 0.700521 0.828125 0.601562C0.994792 0.502604 1.18229 0.453125 1.39062 0.453125C1.69271 0.453125 1.96094 0.570312 2.19531 0.804688L7.32812 6.07812H6.69531L11.8047 0.804688C12.0391 0.570312 12.3099 0.453125 12.6172 0.453125C12.8203 0.453125 13.0052 0.502604 13.1719 0.601562C13.3385 0.700521 13.4714 0.835938 13.5703 1.00781C13.6693 1.17448 13.7188 1.36198 13.7188 1.57031C13.7188 1.86719 13.6146 2.1224 13.4062 2.33594L7.89844 7.96094C7.76302 8.10156 7.6224 8.20573 7.47656 8.27344C7.33073 8.33594 7.17188 8.36719 7 8.36719Z" fill="#1637AD"/>
</svg>
