<svg width="31" height="21" viewBox="0 0 31 21" fill="none" xmlns="http://www.w3.org/2000/svg">
<path d="M0.489397 19.6445V12.5312C0.489397 11.3672 0.801897 10.4766 1.4269 9.85938C2.0519 9.24219 2.94643 8.93359 4.11049 8.93359H27.0324C28.2042 8.93359 29.0988 9.24219 29.716 9.85938C30.341 10.4766 30.6535 11.3672 30.6535 12.5312V19.6445C30.6535 19.957 30.5597 20.2031 30.3722 20.3828C30.1847 20.5703 29.9347 20.6641 29.6222 20.6641H28.8956C28.591 20.6641 28.341 20.5703 28.1456 20.3828C27.9581 20.2031 27.8644 19.957 27.8644 19.6445V17.9453C27.8019 17.9609 27.6808 17.9766 27.5011 17.9922C27.3292 18.0078 27.1691 18.0156 27.0206 18.0156H4.12221C3.96596 18.0156 3.8019 18.0078 3.63002 17.9922C3.46596 17.9766 3.34877 17.9609 3.27846 17.9453V19.6445C3.27846 19.957 3.1808 20.2031 2.98549 20.3828C2.79799 20.5703 2.5519 20.6641 2.24721 20.6641H1.52065C1.20815 20.6641 0.958147 20.5703 0.770647 20.3828C0.583147 20.2031 0.489397 19.957 0.489397 19.6445ZM3.38393 7.14062V3.77734C3.38393 2.66016 3.67299 1.82031 4.25112 1.25781C4.82924 0.6875 5.66518 0.402344 6.75893 0.402344H24.4074C25.4933 0.402344 26.3253 0.6875 26.9035 1.25781C27.4894 1.82031 27.7824 2.66016 27.7824 3.77734V7.14062H24.7121V5.51172C24.7121 4.94922 24.5558 4.51953 24.2433 4.22266C23.9386 3.92578 23.4894 3.77734 22.8956 3.77734H18.7706C18.1769 3.77734 17.7238 3.92578 17.4113 4.22266C17.1066 4.51953 16.9542 4.94922 16.9542 5.51172V7.14062H14.3175V5.51172C14.3175 4.94922 14.1652 4.51953 13.8605 4.22266C13.5636 3.92578 13.13 3.77734 12.5597 3.77734H8.21205C7.64174 3.77734 7.20424 3.92578 6.89955 4.22266C6.59487 4.51953 6.44252 4.94922 6.44252 5.51172V7.14062H3.38393Z" fill="#1637AD"/>
</svg>
