<svg width="17" height="28" viewBox="0 0 17 28" fill="none" xmlns="http://www.w3.org/2000/svg">
<path d="M2.3019 27.4414C2.0519 27.7383 1.76283 27.8867 1.43471 27.8867C1.10658 27.8945 0.817522 27.7969 0.567522 27.5938C0.317522 27.3906 0.169085 27.125 0.12221 26.7969C0.083147 26.4688 0.21596 26.125 0.520647 25.7656L4.20033 21.3945L4.80971 18.6055L6.88393 21.1953L6.62612 21.9805C6.54018 22.207 6.46596 22.3789 6.40346 22.4961C6.34877 22.6055 6.22768 22.7695 6.04018 22.9883L2.3019 27.4414ZM11.3488 27.0547L8.73549 21.7812C8.6808 21.6797 8.63393 21.5898 8.59487 21.5117C8.5558 21.4258 8.47377 21.3047 8.34877 21.1484L5.84096 17.9844C5.35658 17.375 5.02455 16.8516 4.84487 16.4141C4.66518 15.9766 4.60268 15.4141 4.65737 14.7266L4.85658 12.0547C4.87221 11.8906 4.79799 11.7773 4.63393 11.7148C4.46987 11.6445 4.31362 11.6797 4.16518 11.8203L3.28627 12.6055L3.01674 15.8164C2.97768 16.2227 2.84877 16.5312 2.63002 16.7422C2.41908 16.9453 2.13783 17.0352 1.78627 17.0117C1.4269 16.9961 1.14955 16.8672 0.954241 16.625C0.758928 16.375 0.672991 16.0586 0.696428 15.6758L0.930803 12.7227C0.962053 12.3164 1.04018 11.9688 1.16518 11.6797C1.29018 11.3828 1.51283 11.082 1.83315 10.7773L3.73158 8.90234C4.34096 8.30859 4.89955 7.85156 5.40737 7.53125C5.92299 7.20312 6.51283 7.03906 7.1769 7.03906C8.05971 7.03906 8.7394 7.33203 9.21596 7.91797C9.70033 8.50391 9.91127 9.23047 9.84877 10.0977L9.60268 13.6953C9.5558 14.3359 9.48158 14.8945 9.38002 15.3711C9.28627 15.8477 9.13002 16.4102 8.91127 17.0586L8.8058 17.3633L10.4113 19.6484C10.5363 19.8203 10.6613 20.0078 10.7863 20.2109C10.9113 20.4062 11.0206 20.6016 11.1144 20.7969L13.6574 25.9414C13.8683 26.3711 13.9074 26.7461 13.7746 27.0664C13.6496 27.3867 13.4308 27.6133 13.1183 27.7461C12.8136 27.8867 12.4894 27.9102 12.1456 27.8164C11.8097 27.7227 11.5441 27.4688 11.3488 27.0547ZM15.7199 11.9141C16.1027 11.9141 16.4113 12.0195 16.6456 12.2305C16.8878 12.4414 17.0089 12.7188 17.0089 13.0625C17.0089 13.4297 16.8917 13.7188 16.6574 13.9297C16.423 14.1328 16.1105 14.2344 15.7199 14.2344H13.0363C12.6613 14.2344 12.3644 14.1953 12.1456 14.1172C11.9269 14.0391 11.716 13.8945 11.5128 13.6836L10.8449 13.0391L11.0441 9.91016L12.8605 11.9141H15.7199ZM8.60658 5.9375C8.12221 5.9375 7.6769 5.82031 7.27065 5.58594C6.87221 5.35156 6.5519 5.03516 6.30971 4.63672C6.07533 4.23047 5.95815 3.78516 5.95815 3.30078C5.95815 2.80859 6.07533 2.36328 6.30971 1.96484C6.5519 1.55859 6.87221 1.23828 7.27065 1.00391C7.6769 0.769531 8.12221 0.652344 8.60658 0.652344C9.09877 0.652344 9.54408 0.769531 9.94252 1.00391C10.341 1.23828 10.6574 1.55859 10.8917 1.96484C11.1339 2.36328 11.255 2.80859 11.255 3.30078C11.255 3.78516 11.1339 4.23047 10.8917 4.63672C10.6574 5.03516 10.341 5.35156 9.94252 5.58594C9.54408 5.82031 9.09877 5.9375 8.60658 5.9375Z" fill="#1637AD"/>
</svg>
