<svg width="373" height="110" viewBox="0 0 373 110" fill="none" xmlns="http://www.w3.org/2000/svg">
<g filter="url(#filter0_d_74_627)">
<path d="M2.99512 6V3H5.99512V0H8.99512V3V6H5.99512V9H2.99512V6Z" fill="#1637AD"/>
<path d="M2.99512 6V9H-0.000288963V6H2.99512Z" fill="#1637AD"/>
<rect x="8.99512" width="352.009" height="3" fill="#1637AD"/>
<path d="M367.005 6V3H364.005V0H361.005V3V6H364.005V9H367.005V6Z" fill="#1637AD"/>
<path d="M367.005 6V9H370V6H367.005Z" fill="#1637AD"/>
<rect y="9" width="3" height="89" fill="#1637AD"/>
<g filter="url(#filter1_i_74_627)">
<rect width="364" height="101" transform="translate(3 3)" fill="white"/>
</g>
<rect x="367" y="9" width="3" height="89" fill="#1637AD"/>
<path d="M367 3V6V9H364V6H361V3H364H367Z" fill="#1637AD"/>
<path d="M3 3V6V9H6V6H9V3H6H3Z" fill="#1637AD"/>
<path d="M2.99512 101V104H5.99512V107H8.99512V104V101H5.99512V98H2.99512V101Z" fill="#1637AD"/>
<path d="M2.99512 101V98H-0.000288963V101H2.99512Z" fill="#1637AD"/>
<rect width="352.009" height="3" transform="matrix(1 0 0 -1 8.99512 107)" fill="#1637AD"/>
<path d="M367.005 101V104H364.005V107H361.005V104V101H364.005V98H367.005V101Z" fill="#1637AD"/>
<path d="M367.005 101V98H370V101H367.005Z" fill="#1637AD"/>
</g>
<defs>
<filter id="filter0_d_74_627" x="0" y="0" width="373" height="110" filterUnits="userSpaceOnUse" color-interpolation-filters="sRGB">
<feFlood flood-opacity="0" result="BackgroundImageFix"/>
<feColorMatrix in="SourceAlpha" type="matrix" values="0 0 0 0 0 0 0 0 0 0 0 0 0 0 0 0 0 0 127 0" result="hardAlpha"/>
<feOffset dx="3" dy="3"/>
<feComposite in2="hardAlpha" operator="out"/>
<feColorMatrix type="matrix" values="0 0 0 0 0.0862745 0 0 0 0 0.215686 0 0 0 0 0.678431 0 0 0 1 0"/>
<feBlend mode="normal" in2="BackgroundImageFix" result="effect1_dropShadow_74_627"/>
<feBlend mode="normal" in="SourceGraphic" in2="effect1_dropShadow_74_627" result="shape"/>
</filter>
<filter id="filter1_i_74_627" x="3" y="3" width="364" height="101" filterUnits="userSpaceOnUse" color-interpolation-filters="sRGB">
<feFlood flood-opacity="0" result="BackgroundImageFix"/>
<feBlend mode="normal" in="SourceGraphic" in2="BackgroundImageFix" result="shape"/>
<feColorMatrix in="SourceAlpha" type="matrix" values="0 0 0 0 0 0 0 0 0 0 0 0 0 0 0 0 0 0 127 0" result="hardAlpha"/>
<feOffset dx="-3" dy="-3"/>
<feComposite in2="hardAlpha" operator="arithmetic" k2="-1" k3="1"/>
<feColorMatrix type="matrix" values="0 0 0 0 1 0 0 0 0 0.376471 0 0 0 0 0.582484 0 0 0 0.3 0"/>
<feBlend mode="normal" in2="shape" result="effect1_innerShadow_74_627"/>
</filter>
</defs>
</svg>
