<svg width="373" height="445" viewBox="0 0 373 445" fill="none" xmlns="http://www.w3.org/2000/svg">
<g filter="url(#filter0_d_85_2561)">
<path d="M2.99512 13.5V10.5H5.99512V7.5H8.99512V10.5V13.5H5.99512V16.5H2.99512V13.5Z" fill="#1637AD"/>
<path d="M2.99512 13.5V16.5H-0.000288963V13.5H2.99512Z" fill="#1637AD"/>
<rect x="8.99512" y="7.5" width="352.009" height="3" fill="#1637AD"/>
<path d="M367.005 13.5V10.5H364.005V7.5H361.005V10.5V13.5H364.005V16.5H367.005V13.5Z" fill="#1637AD"/>
<path d="M367.005 13.5V16.5H370V13.5H367.005Z" fill="#1637AD"/>
<rect y="16.5" width="3" height="412" fill="#1637AD"/>
<rect width="364" height="424" transform="translate(3 10.5)" fill="white"/>
<rect width="364" height="3" transform="matrix(1 0 0 -1 3 118.5)" fill="#1637AD"/>
<rect x="19" y="134.5" width="332" height="17" rx="2" fill="white"/>
<rect x="19" y="159.5" width="332" height="22" rx="2" fill="white"/>
<rect x="19" y="197.5" width="332" height="17" rx="2" fill="white"/>
<rect x="19" y="222.5" width="332" height="22" rx="2" fill="white"/>
<rect x="19" y="252.5" width="332" height="20" rx="2" fill="white"/>
<rect x="19" y="280.5" width="332" height="20" rx="2" fill="white"/>
<rect x="19" y="308.5" width="332" height="20" rx="2" fill="white"/>
<rect x="19" y="336.5" width="332" height="22" rx="2" fill="white"/>
<rect x="367" y="16.5" width="3" height="412" fill="#1637AD"/>
<path d="M367 10.5V13.5V16.5H364V13.5H361V10.5H364H367Z" fill="#1637AD"/>
<path d="M3 10.5V13.5V16.5H6V13.5H9V10.5H6H3Z" fill="#1637AD"/>
<path d="M2.99512 431.5V434.5H5.99512V437.5H8.99512V434.5V431.5H5.99512V428.5H2.99512V431.5Z" fill="#1637AD"/>
<path d="M2.99512 431.5V428.5H-0.000288963V431.5H2.99512Z" fill="#1637AD"/>
<rect width="352.009" height="3" transform="matrix(1 0 0 -1 8.99512 437.5)" fill="#1637AD"/>
<path d="M367.005 431.5V434.5H364.005V437.5H361.005V434.5V431.5H364.005V428.5H367.005V431.5Z" fill="#1637AD"/>
<path d="M367.005 431.5V428.5H370V431.5H367.005Z" fill="#1637AD"/>
</g>
<defs>
<filter id="filter0_d_85_2561" x="0" y="0" width="373" height="448" filterUnits="userSpaceOnUse" color-interpolation-filters="sRGB">
<feFlood flood-opacity="0" result="BackgroundImageFix"/>
<feColorMatrix in="SourceAlpha" type="matrix" values="0 0 0 0 0 0 0 0 0 0 0 0 0 0 0 0 0 0 127 0" result="hardAlpha"/>
<feOffset dx="3" dy="3"/>
<feComposite in2="hardAlpha" operator="out"/>
<feColorMatrix type="matrix" values="0 0 0 0 0.0862745 0 0 0 0 0.215686 0 0 0 0 0.678431 0 0 0 1 0"/>
<feBlend mode="normal" in2="BackgroundImageFix" result="effect1_dropShadow_85_2561"/>
<feBlend mode="normal" in="SourceGraphic" in2="effect1_dropShadow_85_2561" result="shape"/>
</filter>
</defs>
</svg>
