<svg width="19" height="62" viewBox="0 0 19 62" fill="none" xmlns="http://www.w3.org/2000/svg">
<mask id="path-1-outside-1_71_2171" maskUnits="userSpaceOnUse" x="0.299805" y="-0.700195" width="19" height="62" fill="black">
<rect fill="white" x="0.299805" y="-0.700195" width="19" height="62"/>
<path fill-rule="evenodd" clip-rule="evenodd" d="M4.2998 50.7998L4.2998 32.5998L6.8998 32.5998L6.8998 3.99981H12.0998L12.0998 32.5998L14.6998 32.5998L14.6998 50.7998H4.2998ZM6.8998 53.3998V57.2998H12.0998V53.3998H6.8998Z"/>
</mask>
<path fill-rule="evenodd" clip-rule="evenodd" d="M4.2998 50.7998L4.2998 32.5998L6.8998 32.5998L6.8998 3.99981H12.0998L12.0998 32.5998L14.6998 32.5998L14.6998 50.7998H4.2998ZM6.8998 53.3998V57.2998H12.0998V53.3998H6.8998Z" fill="white"/>
<path d="M4.2998 32.5998L4.29981 28.6998L0.399805 28.6998L0.399805 32.5998H4.2998ZM4.2998 50.7998H0.399805L0.399805 54.6998H4.2998L4.2998 50.7998ZM6.8998 32.5998L6.8998 36.4998L10.7998 36.4998V32.5998H6.8998ZM6.8998 3.99981V0.0998039H2.9998V3.99981H6.8998ZM12.0998 3.99981H15.9998V0.0998039H12.0998V3.99981ZM12.0998 32.5998H8.1998V36.4998L12.0998 36.4998L12.0998 32.5998ZM14.6998 32.5998H18.5998L18.5998 28.6998L14.6998 28.6998L14.6998 32.5998ZM14.6998 50.7998L14.6998 54.6998H18.5998V50.7998H14.6998ZM6.8998 57.2998H2.9998L2.9998 61.1998H6.8998V57.2998ZM6.8998 53.3998L6.8998 49.4998H2.9998L2.9998 53.3998H6.8998ZM12.0998 57.2998V61.1998H15.9998V57.2998H12.0998ZM12.0998 53.3998H15.9998L15.9998 49.4998H12.0998V53.3998ZM0.399805 32.5998L0.399805 50.7998H8.1998L8.1998 32.5998H0.399805ZM6.89981 28.6998L4.29981 28.6998L4.2998 36.4998L6.8998 36.4998L6.89981 28.6998ZM2.9998 3.99981L2.9998 32.5998H10.7998L10.7998 3.99981H2.9998ZM12.0998 0.0998039H6.8998L6.8998 7.8998H12.0998L12.0998 0.0998039ZM15.9998 32.5998L15.9998 3.99981H8.1998L8.1998 32.5998H15.9998ZM14.6998 28.6998L12.0998 28.6998L12.0998 36.4998L14.6998 36.4998L14.6998 28.6998ZM18.5998 50.7998L18.5998 32.5998H10.7998L10.7998 50.7998H18.5998ZM4.2998 54.6998H14.6998L14.6998 46.8998H4.2998L4.2998 54.6998ZM10.7998 57.2998V53.3998H2.9998L2.9998 57.2998H10.7998ZM12.0998 53.3998H6.8998V61.1998H12.0998V53.3998ZM8.1998 53.3998V57.2998H15.9998V53.3998H8.1998ZM6.8998 57.2998H12.0998V49.4998H6.8998L6.8998 57.2998Z" fill="#1637AD" mask="url(#path-1-outside-1_71_2171)"/>
<rect x="2.9998" y="53.4001" width="23.4" height="13" transform="rotate(-90 2.9998 53.4001)" fill="#FFB2FE" stroke="#1637AD" stroke-width="2.6"/>
<path d="M3 22.5105L4.71881 20.8999L9.5121 25.4557L14.3054 20.8999L16 22.5105L9.5121 28.6999L3 22.5105Z" fill="#1637AD"/>
<path d="M3 16.0105L4.71881 14.3999L9.5121 18.9557L14.3054 14.3999L16 16.0105L9.5121 22.1999L3 16.0105Z" fill="#1637AD"/>
<path d="M3 9.51052L4.71881 7.8999L9.5121 12.4557L14.3054 7.8999L16 9.51052L9.5121 15.6999L3 9.51052Z" fill="#1637AD"/>
</svg>
