<svg width="329" height="113" viewBox="0 0 329 113" fill="none" xmlns="http://www.w3.org/2000/svg">
<mask id="path-1-outside-1_92_3507" maskUnits="userSpaceOnUse" x="0" y="0" width="329" height="113" fill="black">
<rect fill="white" width="329" height="113"/>
<path fill-rule="evenodd" clip-rule="evenodd" d="M3 97.4118L3 3L325.74 3V97.4118L176.867 97.4118V100.559H173.607V103.706H169.26V106.853H166V110H162.74V106.853H159.48V103.706H155.133V100.559H151.873V97.4118L3 97.4118Z"/>
</mask>
<path fill-rule="evenodd" clip-rule="evenodd" d="M3 97.4118L3 3L325.74 3V97.4118L176.867 97.4118V100.559H173.607V103.706H169.26V106.853H166V110H162.74V106.853H159.48V103.706H155.133V100.559H151.873V97.4118L3 97.4118Z" fill="white"/>
<path d="M3 3L3 0H0L0 3H3ZM3 97.4118H0L0 100.412H3L3 97.4118ZM325.74 3H328.74V0H325.74V3ZM325.74 97.4118V100.412H328.74V97.4118H325.74ZM176.867 97.4118V94.4118H173.867V97.4118H176.867ZM176.867 100.559V103.559H179.867V100.559H176.867ZM173.607 100.559V97.5588H170.607V100.559H173.607ZM173.607 103.706V106.706H176.607V103.706H173.607ZM169.26 103.706V100.706H166.26V103.706H169.26ZM169.26 106.853V109.853H172.26V106.853H169.26ZM166 106.853V103.853H163V106.853H166ZM166 110V113H169V110H166ZM162.74 110H159.74V113H162.74V110ZM162.74 106.853H165.74V103.853H162.74V106.853ZM159.48 106.853H156.48V109.853H159.48V106.853ZM159.48 103.706H162.48V100.706H159.48V103.706ZM155.133 103.706H152.133V106.706H155.133V103.706ZM155.133 100.559H158.133V97.5588H155.133V100.559ZM151.873 100.559H148.873V103.559H151.873V100.559ZM151.873 97.4118H154.873V94.4118H151.873V97.4118ZM0 3L0 97.4118H6L6 3H0ZM325.74 0L3 0L3 6L325.74 6V0ZM328.74 97.4118V3H322.74V97.4118H328.74ZM176.867 100.412L325.74 100.412V94.4118L176.867 94.4118V100.412ZM179.867 100.559V97.4118H173.867V100.559H179.867ZM173.607 103.559H176.867V97.5588H173.607V103.559ZM176.607 103.706V100.559H170.607V103.706H176.607ZM169.26 106.706H173.607V100.706H169.26V106.706ZM172.26 106.853V103.706H166.26V106.853H172.26ZM166 109.853H169.26V103.853H166V109.853ZM163 106.853V110H169V106.853H163ZM166 107H162.74V113H166V107ZM165.74 110V106.853H159.74V110H165.74ZM159.48 109.853H162.74V103.853H159.48V109.853ZM156.48 103.706V106.853H162.48V103.706H156.48ZM155.133 106.706H159.48V100.706H155.133V106.706ZM152.133 100.559V103.706H158.133V100.559H152.133ZM151.873 103.559H155.133V97.5588H151.873V103.559ZM148.873 97.4118V100.559H154.873V97.4118H148.873ZM3 100.412L151.873 100.412V94.4118L3 94.4118L3 100.412Z" fill="#1637AD" mask="url(#path-1-outside-1_92_3507)"/>
</svg>
