<svg width="332" height="48" viewBox="0 0 332 48" fill="none" xmlns="http://www.w3.org/2000/svg">
<rect x="2" width="328" height="2" fill="#1637AD"/>
<rect width="332" height="44" transform="translate(0 2)" fill="url(#paint0_linear_121_914)"/>
<rect x="2" y="2" width="44" height="2" transform="rotate(90 2 2)" fill="#1637AD"/>
<path d="M117.489 30V16.734H126.345L128.343 18.732V21.918L127.443 22.836L128.865 24.168V28.002L126.867 30H117.489ZM120.855 21.882H124.491L125.121 21.252V19.92L124.491 19.29H120.855V21.882ZM120.855 27.444H124.869L125.499 26.814V24.852L124.869 24.222H120.855V27.444ZM132.665 30.018L130.667 28.02V20.604H134.033V27.48L134.663 28.11H135.401L137.219 26.562V20.604H140.585V30H137.219V28.74L135.653 30.018H132.665ZM143.499 33.366V31.08H148.827L149.457 30.45V28.596L147.729 30H144.741L142.743 28.002V20.604H146.109V27.462L146.739 28.092H147.477L149.457 26.4V20.604H152.625V31.332L150.609 33.366H143.499ZM161.811 30V19.47H158.103V16.734H168.885V19.47H165.177V30H161.811ZM170.104 30L168.106 28.002V22.602L170.104 20.604H175.972L177.97 22.602V28.002L175.972 30H170.104ZM172.102 28.128H173.974L174.604 27.48V23.106L173.974 22.476H172.102L171.472 23.106V27.48L172.102 28.128ZM180.048 30V16.734H183.414V23.358L186.114 20.604H190.146L186.276 24.564L190.272 30H186.006L183.99 26.886L183.414 27.498V30H180.048ZM193.149 30L191.151 28.002V22.602L193.149 20.604H198.441L200.439 22.602V26.166H194.517V26.994L195.165 27.624H200.295V30H193.149ZM194.517 24.222H197.379V23.106L196.731 22.476H195.165L194.517 23.106V24.222ZM202.601 30V20.586H205.967V21.882L207.551 20.586H210.791L212.789 22.602V30H209.423V23.07L208.811 22.494H207.839L205.967 24.078V30H202.601Z" fill="white"/>
<rect x="332" y="2" width="44" height="2" transform="rotate(90 332 2)" fill="#1637AD"/>
<rect x="2" y="46" width="328" height="2" fill="#1637AD"/>
<defs>
<linearGradient id="paint0_linear_121_914" x1="0" y1="0" x2="245.073" y2="174.093" gradientUnits="userSpaceOnUse">
<stop stop-color="#FF7DF3"/>
<stop offset="1" stop-color="#3765FF"/>
</linearGradient>
</defs>
</svg>
