<svg width="130" height="40" viewBox="0 0 130 40" fill="none" xmlns="http://www.w3.org/2000/svg">
<rect x="2" width="126" height="2" fill="#1637AD"/>
<rect width="130" height="36" transform="translate(0 2)" fill="#A0E4FF"/>
<rect width="130" height="36" transform="translate(0 2)" fill="url(#paint0_linear_92_9402)"/>
<rect x="2" y="2" width="36" height="2" transform="rotate(90 2 2)" fill="#1637AD"/>
<path d="M16.4895 26V12.734H25.3455L27.3435 14.732V17.918L26.4435 18.836L27.8655 20.168V24.002L25.8675 26H16.4895ZM19.8555 17.882H23.4915L24.1215 17.252V15.92L23.4915 15.29H19.8555V17.882ZM19.8555 23.444H23.8695L24.4995 22.814V20.852L23.8695 20.222H19.8555V23.444ZM31.6648 26.018L29.6668 24.02V16.604H33.0328V23.48L33.6628 24.11H34.4008L36.2188 22.562V16.604H39.5848V26H36.2188V24.74L34.6528 26.018H31.6648ZM42.4989 29.366V27.08H47.8269L48.4569 26.45V24.596L46.7289 26H43.7409L41.7429 24.002V16.604H45.1089V23.462L45.7389 24.092H46.4769L48.4569 22.4V16.604H51.6249V27.332L49.6089 29.366H42.4989ZM60.8107 26V15.47H57.1027V12.734H67.8847V15.47H64.1767V26H60.8107ZM69.1041 26L67.1061 24.002V18.602L69.1041 16.604H74.9721L76.9701 18.602V24.002L74.9721 26H69.1041ZM71.1021 24.128H72.9741L73.6041 23.48V19.106L72.9741 18.476H71.1021L70.4721 19.106V23.48L71.1021 24.128ZM79.0479 26V12.734H82.4139V19.358L85.1139 16.604H89.1459L85.2759 20.564L89.2719 26H85.0059L82.9899 22.886L82.4139 23.498V26H79.0479ZM92.149 26L90.151 24.002V18.602L92.149 16.604H97.441L99.439 18.602V22.166H93.517V22.994L94.165 23.624H99.295V26H92.149ZM93.517 20.222H96.379V19.106L95.731 18.476H94.165L93.517 19.106V20.222ZM101.601 26V16.586H104.967V17.882L106.551 16.586H109.791L111.789 18.602V26H108.423V19.07L107.811 18.494H106.839L104.967 20.078V26H101.601Z" fill="white"/>
<rect x="130" y="2" width="36" height="2" transform="rotate(90 130 2)" fill="#1637AD"/>
<rect x="2" y="38" width="126" height="2" fill="#1637AD"/>
<defs>
<linearGradient id="paint0_linear_92_9402" x1="0" y1="0" x2="129.428" y2="44.0017" gradientUnits="userSpaceOnUse">
<stop stop-color="#FF7DF3"/>
<stop offset="1" stop-color="#3765FF"/>
</linearGradient>
</defs>
</svg>
