<svg width="408" height="110" viewBox="0 0 408 110" fill="none" xmlns="http://www.w3.org/2000/svg">
<mask id="path-1-outside-1_71_2175" maskUnits="userSpaceOnUse" x="0" y="-0.187012" width="408" height="110" fill="black">
<rect fill="white" y="-0.187012" width="408" height="110"/>
<path fill-rule="evenodd" clip-rule="evenodd" d="M3 9.62617L3 106.813L405 106.813V9.62617H401.687V6.31299H398.373V2.9998L349.78 2.9998L33.9229 2.9998H9.62646V6.31299H6.31299V9.62617H3Z"/>
</mask>
<path fill-rule="evenodd" clip-rule="evenodd" d="M3 9.62617L3 106.813L405 106.813V9.62617H401.687V6.31299H398.373V2.9998L349.78 2.9998L33.9229 2.9998H9.62646V6.31299H6.31299V9.62617H3Z" fill="white"/>
<path d="M3 106.813H0L0 109.813H3L3 106.813ZM3 9.62617L3 6.62617H0L0 9.62617H3ZM405 106.813V109.813H408V106.813H405ZM405 9.62617H408V6.62617H405V9.62617ZM401.687 9.62617H398.687V12.6262H401.687V9.62617ZM401.687 6.31299H404.687V3.31299H401.687V6.31299ZM398.373 6.31299H395.373V9.31299H398.373V6.31299ZM398.373 2.9998H401.373V-0.000198364L398.373 -0.000198364L398.373 2.9998ZM349.78 2.9998L349.78 5.9998L349.78 2.9998ZM9.62646 2.9998L9.62646 -0.000198364H6.62646L6.62646 2.9998H9.62646ZM9.62646 6.31299V9.31299H12.6265V6.31299H9.62646ZM6.31299 6.31299L6.31299 3.31299H3.31299L3.31299 6.31299H6.31299ZM6.31299 9.62617V12.6262H9.31299V9.62617H6.31299ZM6 106.813L6 9.62617H0L0 106.813H6ZM405 103.813L3 103.813L3 109.813L405 109.813V103.813ZM402 9.62617V106.813H408V9.62617H402ZM401.687 12.6262H405V6.62617H401.687V12.6262ZM398.687 6.31299V9.62617H404.687V6.31299H398.687ZM398.373 9.31299H401.687V3.31299H398.373V9.31299ZM395.373 2.9998V6.31299H401.373V2.9998H395.373ZM349.78 5.9998L398.373 5.9998L398.373 -0.000198364L349.78 -0.000198364L349.78 5.9998ZM33.9229 5.9998L349.78 5.9998V-0.000198364L33.9229 -0.000198364V5.9998ZM9.62646 5.9998H33.9229V-0.000198364H9.62646L9.62646 5.9998ZM12.6265 6.31299L12.6265 2.9998H6.62646L6.62646 6.31299H12.6265ZM6.31299 9.31299H9.62646V3.31299H6.31299L6.31299 9.31299ZM9.31299 9.62617V6.31299H3.31299L3.31299 9.62617H9.31299ZM3 12.6262H6.31299V6.62617H3L3 12.6262Z" fill="#1637AD" mask="url(#path-1-outside-1_71_2175)"/>
</svg>
