<svg width="408" height="406" viewBox="0 0 408 406" fill="none" xmlns="http://www.w3.org/2000/svg">
<mask id="path-1-outside-1_71_2571" maskUnits="userSpaceOnUse" x="0" y="-0.0932617" width="408" height="406" fill="black">
<rect fill="white" y="-0.0932617" width="408" height="406"/>
<path fill-rule="evenodd" clip-rule="evenodd" d="M3 9.90674L3 402.907L405 402.907L405 9.90674H402V5.90674H398.373V2.99979H349.78L33.9229 2.99979H9.62646L9.62646 5.90674H6L6 9.90674H3Z"/>
</mask>
<path fill-rule="evenodd" clip-rule="evenodd" d="M3 9.90674L3 402.907L405 402.907L405 9.90674H402V5.90674H398.373V2.99979H349.78L33.9229 2.99979H9.62646L9.62646 5.90674H6L6 9.90674H3Z" fill="white"/>
<path d="M3 402.907H0L0 405.907H3L3 402.907ZM3 9.90674L3 6.90674H0L0 9.90674H3ZM405 402.907V405.907H408V402.907H405ZM405 9.90674H408V6.90674H405V9.90674ZM402 9.90674H399V12.9067H402V9.90674ZM402 5.90674H405V2.90674H402V5.90674ZM398.373 5.90674H395.373V8.90674H398.373V5.90674ZM398.373 2.99979H401.373V-0.000213623H398.373V2.99979ZM349.78 2.99979V-0.000213623V2.99979ZM33.9229 2.99979L33.9229 5.99979L33.9229 2.99979ZM9.62646 2.99979V-0.000213623H6.62646V2.99979H9.62646ZM9.62646 5.90674V8.90674H12.6265L12.6265 5.90674H9.62646ZM6 5.90674L6 2.90674H3L3 5.90674H6ZM6 9.90674V12.9067H9V9.90674H6ZM6 402.907L6 9.90674H0L0 402.907H6ZM405 399.907L3 399.907L3 405.907L405 405.907V399.907ZM402 9.90674L402 402.907H408L408 9.90674H402ZM402 12.9067H405V6.90674H402V12.9067ZM399 5.90674V9.90674H405V5.90674H399ZM398.373 8.90674H402V2.90674H398.373V8.90674ZM395.373 2.99979V5.90674H401.373V2.99979H395.373ZM349.78 5.99979H398.373V-0.000213623H349.78V5.99979ZM33.9229 5.99979L349.78 5.99979V-0.000213623L33.9229 -0.000213623L33.9229 5.99979ZM9.62646 5.99979H33.9229V-0.000213623H9.62646L9.62646 5.99979ZM12.6265 5.90674V2.99979H6.62646L6.62646 5.90674H12.6265ZM6 8.90674H9.62646L9.62646 2.90674H6L6 8.90674ZM9 9.90674V5.90674H3L3 9.90674H9ZM3 12.9067H6L6 6.90674H3L3 12.9067Z" fill="#1637AD" mask="url(#path-1-outside-1_71_2571)"/>
</svg>
