<svg width="197" height="29" viewBox="0 0 197 29" fill="none" xmlns="http://www.w3.org/2000/svg">
<path fill-rule="evenodd" clip-rule="evenodd" d="M0.951904 5.99633V28.6484H8.99934V22.886H9.82727V25.8003H12.7416V28.6484H20.8221V25.8004H23.6596V28.6484H37.6019V25.8004H39.8256V28.6484H47.873V17.1237H48.6679V25.8004H56.7153V17.1237H57.5763V28.6484H65.1808H65.5907H73.2283V22.8861H76.9705V28.6484H85.0511V25.8004H87.8885V28.6484H101.831V25.8004H104.701H104.811H107.649V28.6484H121.591V25.8004H124.572V14.2425H129.677V28.6484H137.79V14.2425H142.572V25.8004H145.52V28.6484H159.462V25.8004H162.333V28.6484H170.38V19.9718H174.122V28.6484H182.093H182.203H196.068V20.4023H193.088V11.3613H196.068V3.08209H182.203H182.093H174.122V8.87757H170.38V3.08209H162.333V5.99639H159.462V3.08209H145.52V5.99639H143.685H142.572H140.704V3.08209H126.762V5.99639H124.572H123.815H121.591V3.08209H107.649V5.99639H104.811H104.701H101.831V3.08209H87.8885V5.99639H84.9411V8.87757H82.0705V5.99639H79.1562V3.08209H71.0425V5.99639H68.1283V8.87757H65.5907V5.99639H62.6764V3.08209H54.5958V5.99639H50.8205V3.08209H42.773V5.99639H40.5824V3.08209H32.5018V20.4023H28.7596V3.08209H20.8221V3.08203H12.7416V5.99633H11.9468V3.08203H3.89932V5.99633H0.951904ZM20.7122 11.3613H17.8416V14.2425H14.9273V17.5211H17.8416V20.4022H20.7122V11.3613ZM8.88342 17.9019H6.92953V26.5786H3.02172L3.02171 26.5782H6.92952V17.9015H8.88342V17.9019ZM8.88342 20.8158L8.88343 20.8162H11.8971L11.8971 20.8158H8.88342ZM11.8971 23.7301L11.8971 23.7305H14.8114L14.8114 23.7301H11.8971ZM14.8114 26.5782L14.8114 26.5786H18.7523V22.4721L18.7523 26.5782H14.8114ZM12.8575 19.5905L12.8575 16.6766H12.8575V19.5905ZM9.87694 16.6762V15.0538H12.8575V12.1727H15.7718V9.29148H18.7523V5.15185L18.7523 9.29109H15.7718V12.1723H12.8575V15.0535H9.87694V16.6762H9.87694ZM6.92953 9.29148V13.8281H6.92952V9.29109H9.87694V5.15185H9.87694V9.29148H6.92953ZM182.203 11.3613H185.04V20.4023H182.203V11.3613ZM191.018 9.29153H193.999L193.999 9.29109H191.018L191.018 9.29153ZM184.163 9.29109H187.11L187.11 9.29153H184.163V9.29109ZM184.163 26.5786V26.5782H193.999L193.999 26.5786H184.163ZM22.782 23.7306H25.7294L25.7294 23.7301H22.782L22.782 23.7306ZM38.5126 23.7306V5.1519L38.5126 23.7301H35.532V26.5782H25.7294L25.7294 26.5786H35.532V23.7306H38.5126ZM41.8954 26.5782L41.8954 26.5786H45.8032V9.29153H47.7571L47.7571 9.29109H45.8032V26.5782H41.8954ZM47.7571 15.0539H50.7377L50.7377 15.0535H47.7571L47.7571 15.0539ZM50.7377 23.7306H54.6455L54.6455 23.7301H50.7377L50.7377 23.7306ZM54.6455 15.0539H57.626L57.626 15.0535H54.6455L54.6455 15.0539ZM57.626 9.29153H59.6462L59.6461 9.29109H57.626L57.626 9.29153ZM59.6461 26.5782L59.6462 26.5786H63.5208V8.0662L63.5208 26.5782H59.6461ZM67.2507 26.5786L67.2506 26.5782H71.1584V20.8158H79.0403L79.0403 20.8163H71.1585V26.5786H67.2507ZM82.9812 26.5786V10.9474L82.9812 26.5782H79.0403L79.0403 26.5786H82.9812ZM74.1059 12.1723H71.1584V16.6762L71.1585 12.1727H74.1059V9.29153H76.0929L76.0929 9.29109H74.1059V12.1723ZM76.0929 12.1723H79.0403L79.0403 12.1727H76.0929L76.0929 12.1723ZM89.9583 23.7306H87.0109L87.0109 23.7301H89.9583L89.9583 23.7306ZM102.741 15.0535H98.8006L98.8006 15.0539H102.742V8.0662L102.741 15.0535ZM98.8006 9.29109H90.9187V22.4717L90.9187 9.29153H98.8006L98.8006 9.29109ZM98.8006 20.8158H95.8531L95.8532 20.8163H98.8006L98.8006 20.8158ZM95.8531 17.9015H92.8726L92.8726 17.902H95.8532L95.8531 17.9015ZM102.742 16.6766L102.741 23.7301H99.761V26.5782H89.9583L89.9583 26.5786H99.761V23.7306H102.742V16.6766ZM109.719 23.7301H106.771L106.771 23.7306H109.719L109.719 23.7301ZM122.502 23.7301L122.502 8.0662V23.7306H119.521V26.5786H109.719L109.719 26.5782H119.521V23.7301H122.502ZM118.561 9.29109H110.679V22.4717L110.679 9.29153H118.561L118.561 9.29109ZM131.746 9.29153H129.792V9.29109H131.746V9.29153ZM129.792 12.1723H125.885L125.885 12.1727H129.792V12.1723ZM131.746 26.5782V26.5786H135.72L135.72 26.5782H131.746ZM135.72 9.29109H137.674V9.29153H135.72L135.72 9.29109ZM137.674 12.1727H141.615L141.615 12.1723H137.674V12.1727ZM147.59 23.7301H144.642L144.642 23.7306H147.59V23.7301ZM147.59 26.5786V26.5782H157.392V26.5786H147.59ZM160.373 23.7306H157.392V23.7301H160.373L160.373 23.7306ZM160.373 15.0535H156.432V15.0539H160.373L160.373 15.0535ZM156.432 9.29153H148.55V9.29109H156.432V9.29153ZM164.403 26.5782V26.5786H168.31L168.31 26.5782H164.403ZM176.192 26.5782H180.133V26.5786H176.192L176.192 26.5782ZM176.192 17.902H168.31L168.31 17.9015H176.192L176.192 17.902ZM154.362 11.3613H150.62V20.4023H154.362V11.3613ZM112.749 20.4023H116.491V11.3613H112.749V20.4023ZM92.9885 11.3613H96.7308V11.7588H92.9885V11.3613ZM93.7833 20.4023H92.9885V19.9718H93.7833V20.4023ZM76.9705 14.2425H73.2283V14.6068H76.9705V14.2425Z" fill="#001358"/>
<path d="M184.163 24.1435V20.037H187.11V6.85643H184.163V2.7168H193.999V6.85643H191.018V20.037H193.999V24.1435H184.163Z" fill="url(#paint0_linear_98_3014)"/>
<path d="M164.403 24.1435V2.7168H168.31V11.3935H170.264V8.51228H174.238V11.3935H176.192V2.7168H180.133V24.1435H176.192V15.4669H168.31V24.1435H164.403Z" fill="url(#paint1_linear_98_3014)"/>
<path d="M147.59 24.1435V21.2955H144.642V5.6311H147.59V2.7168H157.392V5.6311H160.373V12.6188H156.432V6.85643H148.55V20.037H156.432V14.2415H160.373V21.2955H157.392V24.1435H147.59Z" fill="url(#paint2_linear_98_3014)"/>
<path d="M131.746 24.1435V6.85643H129.792V9.73761H125.885V5.6311H128.832V2.7168H138.635V5.6311H141.615V9.73761H137.674V6.85643H135.72V24.1435H131.746Z" fill="url(#paint3_linear_98_3014)"/>
<path d="M109.719 24.1435V21.2955H106.771V5.6311H109.719V2.7168H119.521V5.6311H122.502V21.2955H119.521V24.1435H109.719ZM110.679 20.037H118.561V6.85643H110.679V20.037Z" fill="url(#paint4_linear_98_3014)"/>
<path d="M89.9584 24.1435V21.2955H87.011V5.6311H89.9584V2.7168H99.761V5.6311H102.742V12.6188H98.8006V6.85643H90.9188V20.037H98.8006V18.3812H95.8532V15.4669H92.8727V11.3935H96.8467V14.2415H102.742V21.2955H99.761V24.1435H89.9584Z" fill="url(#paint5_linear_98_3014)"/>
<path d="M67.2507 24.1435V8.51228H70.1981V5.6311H73.1124V2.7168H77.0865V5.6311H80.0008V8.51228H82.9813V24.1435H79.0404V18.3812H71.1585V24.1435H67.2507ZM71.1585 14.2415H79.0404V9.73761H76.093V6.85643H74.106V9.73761H71.1585V14.2415Z" fill="url(#paint6_linear_98_3014)"/>
<path d="M41.8955 24.1435V5.6311H44.8429V2.7168H48.7507V5.6311H51.7313V11.3935H53.6852V5.6311H56.6657V2.7168H60.6066V5.6311H63.5209V24.1435H59.6462V6.85643H57.6261V12.6188H54.6456V21.2955H50.7378V12.6188H47.7572V6.85643H45.8033V24.1435H41.8955Z" fill="url(#paint7_linear_98_3014)"/>
<path d="M25.7294 24.1435V21.2955H22.782V2.7168H26.6898V20.037H34.5716V2.7168H38.5126V21.2955H35.532V24.1435H25.7294Z" fill="url(#paint8_linear_98_3014)"/>
<path d="M3.02173 24.1435V5.6311H5.96914V2.7168H9.87695V6.85643H6.92954V11.3935H8.88344V8.51228H11.8971V5.6311H14.8114V2.7168H18.7523V6.85643H15.7718V9.73761H12.8575V12.6188H9.87695V14.2415H12.8575V17.1558H15.7718V20.037H18.7523V24.1435H14.8114V21.2955H11.8971V18.3812H8.88344V15.4669H6.92954V24.1435H3.02173Z" fill="url(#paint9_linear_98_3014)"/>
<path fill-rule="evenodd" clip-rule="evenodd" d="M182.093 26.2148V17.9686H185.04V8.9277H182.093V0.648438H196.068V8.9277H193.088V17.9686H196.068V26.2148H182.093ZM191.018 6.85788H193.999V2.71825H184.163V6.85788H187.11V20.0385H184.163V24.145H193.999V20.0385H191.018V6.85788Z" fill="#001358"/>
<path fill-rule="evenodd" clip-rule="evenodd" d="M162.333 26.2148V0.648438H170.38V6.44392H174.122V0.648438H182.203V26.2148H174.122V17.5381H170.38V26.2148H162.333ZM168.31 15.4683H176.192V24.145H180.133V2.71825H176.192V11.3949H174.238V8.51373H170.264V11.3949H168.31V2.71825H164.403V24.145H168.31V15.4683Z" fill="#001358"/>
<path fill-rule="evenodd" clip-rule="evenodd" d="M145.52 26.2148V23.3667H142.573V3.56274H145.52V0.648438H159.462V3.56274H162.443V23.3667H159.462V26.2148H145.52ZM160.373 14.243H156.432V20.0385H148.55V6.85788H156.432V12.6202H160.373V5.63255H157.392V2.71825H147.59V5.63255H144.642V21.2969H147.59V24.145H157.392V21.2969H160.373V14.243ZM154.362 8.9277H150.62V17.9686H154.362V8.9277Z" fill="#001358"/>
<path fill-rule="evenodd" clip-rule="evenodd" d="M129.676 26.2148V11.8089H123.815V3.56274H126.762V0.648438H140.704V3.56274H143.685V11.8089H137.79V26.2148H129.676ZM135.72 6.85788H137.674V9.73906H141.615V5.63255H138.635V2.71825H128.832V5.63255H125.885V9.73906H129.792V6.85788H131.746V24.145H135.72V6.85788Z" fill="#001358"/>
<path fill-rule="evenodd" clip-rule="evenodd" d="M107.649 26.2148V23.3667H104.701V3.56274H107.649V0.648438H121.591V3.56274H124.572V23.3667H121.591V26.2148H107.649ZM109.719 21.2969H106.771V5.63255H109.719V2.71825H119.521V5.63255H122.502V21.2969H119.521V24.145H109.719V21.2969ZM118.561 6.85788H110.679V20.0385H118.561V6.85788ZM116.491 17.9686V8.9277H112.749V17.9686H116.491Z" fill="#001358"/>
<path fill-rule="evenodd" clip-rule="evenodd" d="M87.8886 26.2148V23.3667H84.9412V3.56274H87.8886V0.648438H101.831V3.56274H104.811V23.3667H101.831V26.2148H87.8886ZM102.742 14.243H96.8467V11.3949H92.8727V15.4683H95.8532V18.3826H98.8006V20.0385H90.9188V6.85788H98.8006V12.6202H102.742V5.63255H99.761V2.71825H89.9584V5.63255H87.011V21.2969H89.9584V24.145H99.761V21.2969H102.742V14.243ZM96.7308 9.3251V8.9277H92.9886V9.3251H96.7308ZM92.9886 17.5381V17.9686H93.7834V17.5381H92.9886Z" fill="#001358"/>
<path fill-rule="evenodd" clip-rule="evenodd" d="M65.1809 26.2148V6.44392H68.1283V3.56274H71.0426V0.648438H79.1563V3.56274H82.0706V6.44392H85.0511V26.2148H76.9706V20.4524H73.2283V26.2148H65.1809ZM71.1585 18.3826H79.0404V24.145H82.9813V8.51373H80.0008V5.63255H77.0865V2.71825H73.1124V5.63255H70.1981V8.51373H67.2507V24.145H71.1585V18.3826ZM71.1585 14.243H79.0404V9.73906H76.093V6.85788H74.106V9.73906H71.1585V14.243ZM73.2283 11.8089V12.1732H76.9706V11.8089H73.2283Z" fill="#001358"/>
<path fill-rule="evenodd" clip-rule="evenodd" d="M39.8257 26.2148V3.56274H42.7731V0.648438H50.8205V3.56274H54.5959V0.648438H62.6764V3.56274H65.5907V26.2148H57.5764V14.6901H56.7154V23.3667H48.6679V14.6901H47.8731V26.2148H39.8257ZM45.8033 6.85788H47.7572V12.6202H50.7377V21.2969H54.6456V12.6202H57.6261V6.85788H59.6462V24.145H63.5209V5.63255H60.6066V2.71825H56.6657V5.63255H53.6852V11.3949H51.7313V5.63255H48.7507V2.71825H44.8429V5.63255H41.8955V24.145H45.8033V6.85788Z" fill="#001358"/>
<path fill-rule="evenodd" clip-rule="evenodd" d="M23.6596 26.2148V23.3667H20.7122V0.648438H28.7596V17.9686H32.5018V0.648438H40.5824V23.3667H37.6018V26.2148H23.6596ZM34.5716 20.0385H26.6898V2.71825H22.782V21.2969H25.7294V24.145H35.532V21.2969H38.5126V2.71825H34.5716V20.0385Z" fill="#001358"/>
<path fill-rule="evenodd" clip-rule="evenodd" d="M0.951904 26.2148V3.56274H3.89932V0.648438H11.9468V3.56274H12.7416V0.648438H20.8221V8.9277H17.8416V11.8089H14.9273V15.0875H17.8416V17.9686H20.8221V26.2148H12.7416V23.3667H9.82727V20.4524H8.99934V26.2148H0.951904ZM6.92953 15.4683H8.88343V18.3826H11.8971V21.2969H14.8114V24.145H18.7523V20.0385H15.7718V17.1573H12.8575V14.243H9.87694V12.6202H12.8575V9.73906H15.7718V6.85788H18.7523V2.71825H14.8114V5.63255H11.8971V8.51373H8.88343V11.3949H6.92953V6.85788H9.87694V2.71825H5.96913V5.63255H3.02172V24.145H6.92953V15.4683Z" fill="#001358"/>
<defs>
<linearGradient id="paint0_linear_98_3014" x1="189.081" y1="2.7168" x2="189.081" y2="24.1435" gradientUnits="userSpaceOnUse">
<stop stop-color="#FFD7FB"/>
<stop offset="1" stop-color="#FF87F4"/>
</linearGradient>
<linearGradient id="paint1_linear_98_3014" x1="172.268" y1="2.7168" x2="172.268" y2="24.1435" gradientUnits="userSpaceOnUse">
<stop stop-color="#FFD7FB"/>
<stop offset="1" stop-color="#FF87F4"/>
</linearGradient>
<linearGradient id="paint2_linear_98_3014" x1="152.508" y1="2.7168" x2="152.508" y2="24.1435" gradientUnits="userSpaceOnUse">
<stop stop-color="#FFD7FB"/>
<stop offset="1" stop-color="#FF87F4"/>
</linearGradient>
<linearGradient id="paint3_linear_98_3014" x1="133.75" y1="2.7168" x2="133.75" y2="24.1435" gradientUnits="userSpaceOnUse">
<stop stop-color="#FFD7FB"/>
<stop offset="1" stop-color="#FF87F4"/>
</linearGradient>
<linearGradient id="paint4_linear_98_3014" x1="114.637" y1="2.7168" x2="114.637" y2="24.1435" gradientUnits="userSpaceOnUse">
<stop stop-color="#FFD7FB"/>
<stop offset="1" stop-color="#FF87F4"/>
</linearGradient>
<linearGradient id="paint5_linear_98_3014" x1="94.8763" y1="2.7168" x2="94.8763" y2="24.1435" gradientUnits="userSpaceOnUse">
<stop stop-color="#FFD7FB"/>
<stop offset="1" stop-color="#FF87F4"/>
</linearGradient>
<linearGradient id="paint6_linear_98_3014" x1="75.116" y1="2.7168" x2="75.116" y2="24.1435" gradientUnits="userSpaceOnUse">
<stop stop-color="#FFD7FB"/>
<stop offset="1" stop-color="#FF87F4"/>
</linearGradient>
<linearGradient id="paint7_linear_98_3014" x1="52.7082" y1="2.7168" x2="52.7082" y2="24.1435" gradientUnits="userSpaceOnUse">
<stop stop-color="#FFD7FB"/>
<stop offset="1" stop-color="#FF87F4"/>
</linearGradient>
<linearGradient id="paint8_linear_98_3014" x1="30.6473" y1="2.7168" x2="30.6473" y2="24.1435" gradientUnits="userSpaceOnUse">
<stop stop-color="#FFD7FB"/>
<stop offset="1" stop-color="#FF87F4"/>
</linearGradient>
<linearGradient id="paint9_linear_98_3014" x1="10.887" y1="2.7168" x2="10.887" y2="24.1435" gradientUnits="userSpaceOnUse">
<stop stop-color="#FFD7FB"/>
<stop offset="1" stop-color="#FF87F4"/>
</linearGradient>
</defs>
</svg>
