<svg width="1280" height="1280" viewBox="0 0 1280 1280" fill="none" xmlns="http://www.w3.org/2000/svg">
<rect width="1280" height="1280" rx="640" fill="#4F75FE"/>
<path d="M308 815C308 777 317 710 335 614C353 518 364 457.333 368 432L315 325C399.667 277 471.667 253 531 253C560.333 253 582.333 263 597 283C652.333 263.667 703.333 254 750 254C836.667 254 904 282.333 952 339C1000 395 1024 465 1024 549C1024 659.667 983.333 761.333 902 854C862.667 898.667 810.667 934.667 746 962C682 989.333 613.333 1003 540 1003C466.667 1003 409.667 987 369 955C328.333 922.333 308 875.667 308 815ZM520 853C534 855.667 549.667 857 567 857C639.667 857 696.333 831 737 779C777.667 726.333 798 661.667 798 585C798 523 784 473.667 756 437C728 400.333 687.667 382 635 382C627 382 613.667 383.333 595 386C590.333 420 578 496 558 614C538.667 731.333 526 811 520 853Z" fill="white"/>
</svg>
